<svg width="91" height="92" viewBox="0 0 91 92" fill="none" xmlns="http://www.w3.org/2000/svg">
<path d="M22.7501 87.2438H7.58341C7.08545 87.2439 6.59234 87.146 6.13225 86.9555C5.67217 86.7649 5.25413 86.4857 4.90201 86.1336C4.5499 85.7814 4.27061 85.3634 4.08011 84.9033C3.8896 84.4432 3.79162 83.9501 3.79175 83.4521V53.1188C3.79162 52.6208 3.8896 52.1277 4.08011 51.6677C4.27061 51.2076 4.5499 50.7895 4.90201 50.4374C5.25413 50.0853 5.67217 49.806 6.13225 49.6155C6.59234 49.425 7.08545 49.327 7.58341 49.3271H22.7501C23.248 49.327 23.7412 49.425 24.2012 49.6155C24.6613 49.806 25.0794 50.0853 25.4315 50.4374C25.7836 50.7895 26.0629 51.2076 26.2534 51.6677C26.4439 52.1277 26.5419 52.6208 26.5417 53.1188V83.4521C26.5419 83.9501 26.4439 84.4432 26.2534 84.9033C26.0629 85.3634 25.7836 85.7814 25.4315 86.1336C25.0794 86.4857 24.6613 86.7649 24.2012 86.9555C23.7412 87.146 23.248 87.2439 22.7501 87.2438V87.2438Z" fill="#C1C0FF"/>
<path d="M53.0833 87.2438H37.9167C37.4187 87.244 36.9256 87.146 36.4655 86.9555C36.0054 86.765 35.5874 86.4857 35.2353 86.1336C34.8832 85.7814 34.6039 85.3634 34.4134 84.9033C34.2229 84.4432 34.1249 83.9501 34.125 83.4522V7.61882C34.1249 7.12085 34.2229 6.62774 34.4134 6.16765C34.6039 5.70757 34.8832 5.28953 35.2353 4.93741C35.5874 4.5853 36.0054 4.30601 36.4655 4.11551C36.9256 3.925 37.4187 3.82702 37.9167 3.82715H53.0833C53.5813 3.82702 54.0744 3.925 54.5345 4.11551C54.9946 4.30601 55.4126 4.5853 55.7647 4.93741C56.1169 5.28953 56.3961 5.70757 56.5866 6.16765C56.7771 6.62774 56.8751 7.12085 56.875 7.61882V83.4522C56.8751 83.9501 56.7771 84.4432 56.5866 84.9033C56.3961 85.3634 56.1169 85.7814 55.7647 86.1336C55.4126 86.4857 54.9946 86.765 54.5345 86.9555C54.0744 87.146 53.5813 87.244 53.0833 87.2438V87.2438Z" fill="#6563FF"/>
<path d="M83.4166 87.2437H68.2499C67.752 87.2439 67.2588 87.1459 66.7988 86.9554C66.3387 86.7649 65.9206 86.4856 65.5685 86.1335C65.2164 85.7814 64.9371 85.3633 64.7466 84.9032C64.5561 84.4431 64.4581 83.95 64.4583 83.4521V37.9521C64.4581 37.4541 64.5561 36.961 64.7466 36.5009C64.9371 36.0408 65.2164 35.6228 65.5685 35.2707C65.9206 34.9186 66.3387 34.6393 66.7988 34.4488C67.2588 34.2583 67.752 34.1603 68.2499 34.1604H83.4166C83.9146 34.1603 84.4077 34.2583 84.8678 34.4488C85.3278 34.6393 85.7459 34.9186 86.098 35.2707C86.4501 35.6228 86.7294 36.0408 86.9199 36.5009C87.1104 36.961 87.2084 37.4541 87.2083 37.9521V83.4521C87.2084 83.95 87.1104 84.4431 86.9199 84.9032C86.7294 85.3633 86.4501 85.7814 86.098 86.1335C85.7459 86.4856 85.3278 86.7649 84.8678 86.9554C84.4077 87.1459 83.9146 87.2439 83.4166 87.2437Z" fill="#A2A1FF"/>
</svg>
