<svg width="241" height="45" viewBox="0 0 241 45" fill="none" xmlns="http://www.w3.org/2000/svg">
<path d="M84.0232 4.71857V8.19046H51.2698V4.71857H84.0232ZM69.49 13.5848V39.1505H65.8173V13.5848H69.49Z" fill="white" stroke="white" stroke-width="0.995934" stroke-miterlimit="10"/>
<path d="M133.505 4.7184C133.988 4.71458 134.467 4.80697 134.915 4.99019C135.362 5.17341 135.768 5.44379 136.11 5.7856C136.452 6.12741 136.722 6.53381 136.906 6.98113C137.089 7.42846 137.181 7.90776 137.177 8.39114V35.4776C137.181 35.961 137.089 36.4403 136.906 36.8876C136.722 37.3349 136.452 37.7413 136.11 38.0832C135.768 38.425 135.362 38.6954 134.915 38.8786C134.467 39.0618 133.988 39.1542 133.505 39.1504H105.686C105.203 39.1561 104.722 39.0651 104.274 38.8825C103.826 38.7 103.419 38.4297 103.077 38.0875C102.734 37.7453 102.464 37.3381 102.282 36.8899C102.099 36.4417 102.008 35.9615 102.014 35.4776V8.39114C102.008 7.90723 102.099 7.42705 102.282 6.97884C102.464 6.53064 102.734 6.12346 103.077 5.78125C103.419 5.43905 103.826 5.16874 104.274 4.98621C104.722 4.80368 105.203 4.71262 105.686 4.7184H133.505ZM105.686 35.6785H133.505V8.19029H105.686V35.6785Z" fill="white" stroke="white" stroke-width="0.995934" stroke-miterlimit="10"/>
<path d="M188.582 4.71838V39.1503H184.579L155.226 4.71838H159.759L184.981 34.2151V4.71838H188.582ZM155.226 39.1503V13.6563L158.898 17.9603V39.1503H155.226Z" fill="white" stroke="white" stroke-width="0.995934" stroke-miterlimit="10"/>
<path d="M240 4.71838V39.1503H235.997L206.572 4.71838H211.178L236.399 34.2151V4.71838H240ZM206.63 39.1503V13.6563L210.302 17.9603V39.1503H206.63Z" fill="white" stroke="white" stroke-width="0.995934" stroke-miterlimit="10"/>
<path d="M33.6986 28.6951C34.1387 27.2098 34.7071 25.7796 35.0005 24.2944C35.3356 22.4765 35.2825 20.6082 34.8446 18.8123C34.4068 17.0164 33.5942 15.3333 32.46 13.8736C31.3259 12.4139 29.8958 11.2106 28.2638 10.3425C26.6317 9.47449 24.8345 8.96139 22.9902 8.83689C22.6861 8.82986 22.3878 8.75353 22.1177 8.61372C21.8476 8.47391 21.6129 8.2743 21.4316 8.0301C19.7814 5.97644 18.0761 3.97779 16.3892 1.94246C16.1691 1.68575 15.9674 1.41071 15.5457 0.860623C17.068 0.493492 18.6111 0.217952 20.1664 0.0354893C29.8847 -0.422917 37.1825 3.55605 41.7666 12.1741C44.1042 16.6897 44.7544 21.891 43.6002 26.8431C43.6002 27.1548 43.1785 27.6132 42.9034 27.6499C39.9513 28.035 36.9808 28.3283 34.0103 28.6584C33.915 28.7103 33.8034 28.7234 33.6986 28.6951Z" fill="white"/>
<path d="M43.0136 28.5483C42.2478 31.1635 40.97 33.6005 39.2546 35.7178C37.4251 38.0209 35.1525 39.9339 32.571 41.3436C29.9895 42.7533 27.1516 43.6311 24.225 43.9251C21.2984 44.2191 18.3425 43.9234 15.5321 43.0554C12.7218 42.1874 10.114 40.7648 7.86289 38.8717C6.63436 37.8265 6.63435 37.8265 7.27611 36.3596L10.6317 28.8417L10.9984 29.3735C12.1496 31.101 13.6919 32.5327 15.5001 33.5523C17.3083 34.5719 19.3315 35.1508 21.4054 35.2419C23.4793 35.333 25.5454 34.9338 27.436 34.0766C29.3267 33.2195 30.9886 31.9285 32.2868 30.3086C32.4885 30.0519 32.7636 29.7219 33.0387 29.6852C36.3208 29.3735 39.5664 28.9334 43.0136 28.5483Z" fill="white"/>
<path d="M5.84564 36.8914C3.60445 34.5599 1.95678 31.7236 1.04154 28.6217C-0.332403 24.3397 -0.347364 19.7373 0.99868 15.4464C2.34472 11.1555 4.98575 7.38629 8.55937 4.65625C10.1776 3.50267 11.8958 2.49626 13.6935 1.6491C13.8961 1.57394 14.1142 1.54969 14.3284 1.57846C14.5426 1.60724 14.7465 1.68816 14.9221 1.81412C16.8474 3.95947 18.7177 6.15982 20.6063 8.34184C20.685 8.45739 20.7526 8.58019 20.808 8.70856C19.7078 9.00194 18.626 9.1853 17.5991 9.55203C15.952 10.1337 14.4372 11.0373 13.1428 12.2102C11.8483 13.3831 10.8003 14.8019 10.0596 16.3839C9.31895 17.9659 8.90058 19.6795 8.82875 21.4248C8.75692 23.1701 9.03311 24.9122 9.64126 26.5497C9.80378 26.9002 9.88792 27.2819 9.88792 27.6683C9.88792 28.0546 9.80378 28.4363 9.64126 28.7868C8.33938 31.4089 7.12918 34.0676 5.84564 36.8914Z" fill="white"/>
<path d="M22 11.0373C19.8241 11.0373 17.697 11.6825 15.8878 12.8914C14.0785 14.1003 12.6684 15.8186 11.8357 17.8289C11.0031 19.8392 10.7852 22.0513 11.2097 24.1854C11.6342 26.3195 12.682 28.2799 14.2207 29.8185C15.7593 31.3571 17.7196 32.4049 19.8537 32.8294C21.9879 33.2539 24.1999 33.0361 26.2102 32.2034C28.2205 31.3707 29.9388 29.9605 31.1477 28.1513C32.3566 26.3421 33.0018 24.215 33.0018 22.0391C33.0018 19.1212 31.8426 16.3229 29.7794 14.2596C27.7162 12.1964 24.9179 11.0373 22 11.0373ZM23.1369 30.6754H20.8999V19.472H23.1736L23.1369 30.6754ZM29.0595 18.0784H14.9406V15.8597H29.0595V18.0784Z" fill="white"/>
</svg>
