<svg width="51" height="51" viewBox="0 0 51 51" fill="none" xmlns="http://www.w3.org/2000/svg">
<path d="M0.987305 25.0354C0.987305 29.9799 2.45353 34.8134 5.20056 38.9246C7.9476 43.0359 11.8521 46.2402 16.4202 48.1324C20.9884 50.0246 26.015 50.5197 30.8646 49.555C35.7141 48.5904 40.1687 46.2094 43.665 42.7131C47.1613 39.2168 49.5423 34.7622 50.5069 29.9126C51.4716 25.0631 50.9765 20.0365 49.0843 15.4683C47.1921 10.9002 43.9878 6.99569 39.8765 4.24866C35.7653 1.50162 30.9318 0.0354004 25.9873 0.0354004C19.3591 0.0427718 13.0046 2.67906 8.31777 7.36587C3.63096 12.0527 0.994676 18.4072 0.987305 25.0354ZM27.7548 13.2679C27.987 13.5 28.1712 13.7755 28.2969 14.0788C28.4225 14.3821 28.4872 14.7072 28.4872 15.0355C28.4872 15.3638 28.4225 15.6888 28.2969 15.9921C28.1712 16.2954 27.987 16.571 27.7548 16.803L22.0224 22.5354H35.9873C36.6503 22.5354 37.2862 22.7988 37.7551 23.2676C38.2239 23.7365 38.4873 24.3724 38.4873 25.0354C38.4873 25.6984 38.2239 26.3343 37.7551 26.8032C37.2862 27.272 36.6503 27.5354 35.9873 27.5354H22.0224L27.7549 33.2679C28.2188 33.7377 28.4781 34.3719 28.476 35.0322C28.4739 35.6924 28.2107 36.325 27.7438 36.7919C27.2769 37.2587 26.6443 37.5219 25.9841 37.524C25.3238 37.526 24.6896 37.2668 24.2198 36.8029L14.2206 26.8037C13.7535 26.3336 13.4914 25.6979 13.4914 25.0353C13.4914 24.3727 13.7535 23.737 14.2206 23.267L24.2198 13.2679C24.4519 13.0357 24.7274 12.8515 25.0307 12.7259C25.334 12.6002 25.659 12.5355 25.9873 12.5355C26.3156 12.5355 26.6406 12.6002 26.9439 12.7259C27.2472 12.8515 27.5227 13.0357 27.7548 13.2679Z" fill="black"/>
</svg>
